<?xml version="1.0" standalone="no"?> <!DOCTYPE svg PUBLIC "-//W3C//DTD SVG 1.0//EN" "http://www.w3.org/TR/2001/REC-SVG-20010904/DTD/svg10.dtd" > <svg xmlns="http://www.w3.org/2000/svg" width="100%" height="100%">
<defs >
<font id="daxlinepro-extrabold" horiz-adv-x="581" ><font-face
    font-family="DaxlinePro-ExtraBold"
    units-per-em="1000"
    panose-1="2 0 5 3 7 0 0 2 0 4"
    ascent="1026"
    descent="-493"
    alphabetic="0" />
<missing-glyph horiz-adv-x="500" d="M0 0V700H500V0H0ZM250 395L420 650H80L250 395ZM280 350L450 95V605L280 350ZM80 50H420L250 305L80 50ZM50 605V95L220 350L50 605Z" />
<glyph unicode=" " glyph-name="space" horiz-adv-x="236" />
<glyph unicode="!" glyph-name="exclam" horiz-adv-x="302" d="M248 724L223 263H80L54 724H248ZM252 133T252 91T223 20T151 -10T80 19T50 91T79 162T151 191T222 162Z" />
<glyph unicode="&quot;" glyph-name="quotedbl" horiz-adv-x="485" d="M429 697L400 391H308L279 697Q306 734 354 734T429 697ZM206 697L177 391H85L56 697Q83 734 131 734T206 697Z" />
<glyph unicode="#" glyph-name="numbersign" horiz-adv-x="750" d="M694 437H576L556 295H657V183H540L514 0H388L415 183H276L250 0H125L151 183H48V295H166L187 437H86V549H203L228 724H353L328 549H467L492 724H617L592 549H694V437ZM451 437H312L292 295H430L451
437Z" />
<glyph unicode="$" glyph-name="dollar" horiz-adv-x="565" d="M516 217Q516 130 465 71T321 -6L332 -159H199L217 -12Q110 -5 46 27L104 173Q165 139 241 139Q342 139 342 206Q342 233 319 252T253 291Q212 309 186 323T126 365T73 429T55 514Q55 599 104 656T243
730L233 876H362L344 736Q433 730 496 697L441 562Q383 592 319 592Q226 592 226 526Q226 499 249 479T315 438Q330 431 347 423T381 406T414 386T446 362T474 334T496 301T510 263T516 217Z" />
<glyph unicode="%" glyph-name="percent" horiz-adv-x="991" d="M945 317T945 215T898 51T763 -12T629 50T581 215T628 379T763 442T897 380ZM679 707L412 -14L312 17L578 738L679 707ZM409 611T409 509T362 345T228 282T94 344T46 509T93 673T228 736T362 674ZM821
96T821 217T763 338T705 217T763 96ZM285 390T285 511T228 632Q170 632 170 511T228 390Q285 390 285 511Z" />
<glyph unicode="&amp;" glyph-name="ampersand" horiz-adv-x="707" d="M676 376L568 359V27Q479 -12 335 -12Q194 -12 117 42T40 199Q40 267 76 313T170 382V384Q119 404 93 445T66 538Q66 620 129 678T306 736Q416 736 490 697L440 571Q391 597 328 597Q281 597
256 578T230 523T254 468T321 448Q358 448 384 453L655 501L676 376ZM407 123V332L320 318Q208 299 208 212Q208 114 340 114Q384 114 407 123Z" />
<glyph unicode="&apos;" glyph-name="quotesingle" horiz-adv-x="262" d="M206 697L177 391H85L56 697Q83 734 131 734T206 697Z" />
<glyph unicode="(" glyph-name="parenleft" horiz-adv-x="413" d="M390 -157L268 -223Q161 -116 103 16T45 298Q45 595 268 818L390 753Q225 553 225 298T390 -157Z" />
<glyph unicode=")" glyph-name="parenright" horiz-adv-x="413" d="M368 298Q368 149 310 17T145 -223L23 -157Q188 43 188 298T23 753L145 818Q368 595 368 298Z" />
<glyph unicode="*" glyph-name="asterisk" horiz-adv-x="574" d="M532 597Q532 576 520 556L369 526L474 411Q472 378 445 353T384 328Q374 328 365 331L292 462L219 331Q210 328 200 328Q167 328 140 353T110 411L215 526L64 556Q52 576 52 597Q52 624 66 647T104
680L240 618L223 769Q249 799 292 799Q336 799 361 769L344 618L480 680Q504 670 518 647T532 597Z" />
<glyph unicode="+" glyph-name="plus" horiz-adv-x="540" d="M484 262H337V111H202V262H56V388H202V539H337V388H484V262Z" />
<glyph unicode="," glyph-name="comma" horiz-adv-x="280" d="M259 134L96 -169H-16L79 134Q116 191 184 191Q250 191 259 134Z" />
<glyph unicode="-" glyph-name="hyphen" horiz-adv-x="394" d="M343 256H51V394H343V256Z" />
<glyph unicode="." glyph-name="period" horiz-adv-x="280" d="M240 131T240 90T211 20T140 -10T70 19T40 90T69 160T140 190T210 161Z" />
<glyph unicode="/" glyph-name="slash" horiz-adv-x="497" d="M471 763L141 -206L-14 -162L317 807L471 763Z" />
<glyph unicode="0" glyph-name="zero" horiz-adv-x="602" d="M560 395T560 270T493 67T301 -12T110 66T42 270T109 473T301 551T492 473ZM394 272Q394 423 301 423T208 272Q208 120 301 120T394 272Z" />
<glyph unicode="1" glyph-name="one" horiz-adv-x="438" d="M372 0H205V359Q179 344 130 331T44 313L20 437Q85 447 149 477T240 539H372V0Z" />
<glyph unicode="2" glyph-name="two" horiz-adv-x="496" d="M459 0H17L241 285Q276 328 276 355Q276 415 204 415Q142 415 78 384L34 512Q121 551 233 551Q342 551 394 505T447 379Q447 314 383 245L281 135H459V0Z" />
<glyph unicode="3" glyph-name="three" horiz-adv-x="509" d="M476 44Q476 -52 404 -111T209 -171Q94 -171 5 -132L55 -5Q120 -32 189 -32Q245 -32 277 -13T309 46Q309 91 264 114T146 137H139V256Q211 261 251 286T292 350Q292 416 206 416Q134 416 68 384L22
512Q114 551 231 551Q344 551 399 501T455 366Q455 321 426 279T353 216V214Q476 164 476 44Z" />
<glyph unicode="4" glyph-name="four" horiz-adv-x="610" d="M568 0H506V-159H353V0H43V116L325 539H506V116H568V0ZM361 397H359L344 366Q329 336 312 310L185 116H358V299L361 397Z" />
<glyph unicode="5" glyph-name="five" horiz-adv-x="511" d="M478 54Q478 -5 456 -49T396 -120T311 -158T208 -171Q100 -171 7 -132L58 -5Q119 -32 200 -32Q252 -32 282 -10T312 50Q312 150 152 150Q113 150 52 142L95 539H455V404H234L219 270H223Q345 270 411
212T478 54Z" />
<glyph unicode="6" glyph-name="six" horiz-adv-x="603" d="M563 221Q563 120 492 54T306 -12Q174 -12 108 67T42 267Q42 359 76 436T169 567T303 657T466 710L506 579Q303 537 237 423Q270 434 321 434Q437 434 500 378T563 221ZM402 222Q402 270 372 296T292
323Q239 323 203 311Q200 290 200 267Q200 199 227 159T306 118Q349 118 375 148T402 222Z" />
<glyph unicode="7" glyph-name="seven" horiz-adv-x="554" d="M528 539L249 -159H64L306 404H31V539H528Z" />
<glyph unicode="8" glyph-name="eight" horiz-adv-x="603" d="M563 182Q563 95 493 42T301 -12T110 41T40 182Q40 244 73 285T172 363Q116 397 87 435T57 525Q57 606 123 658T301 710Q414 710 480 658T546 525Q546 473 517 435T431 363Q496 327 529 286T563 182ZM392
521Q392 555 369 576T301 597T234 576T211 521Q211 490 232 469T301 419Q350 448 371 469T392 521ZM403 154T403 190T379 250T301 303Q249 275 225 251T200 190T227 132T301 109T375 131Z" />
<glyph unicode="9" glyph-name="nine" horiz-adv-x="603" d="M561 272Q561 180 527 103T434 -28T300 -118T137 -171L97 -40Q300 2 366 116Q333 105 282 105Q166 105 103 161T40 318Q40 419 111 485T297 551Q429 551 495 472T561 272ZM403 273Q403 341 376 381T297
422Q253 422 227 392T201 319Q201 271 231 244T311 217T400 230Q403 251 403 273Z" />
<glyph unicode=":" glyph-name="colon" horiz-adv-x="308" d="M254 131T254 90T225 20T154 -10T84 19T54 90T83 160T154 190T224 161ZM254 460T254 419T225 349T154 319T84 348T54 419T83 489T154 519T224 490Z" />
<glyph unicode=";" glyph-name="semicolon" horiz-adv-x="308" d="M259 460T259 419T230 349T159 319T89 348T59 419T88 489T159 519T229 490ZM262 134L100 -169H-13L82 134Q119 191 187 191Q253 191 262 134Z" />
<glyph unicode="&lt;" glyph-name="less" horiz-adv-x="540" d="M484 67L56 271V379L484 583V435L204 325L484 215V67Z" />
<glyph unicode="=" glyph-name="equal" horiz-adv-x="540" d="M484 377H56V503H484V377ZM484 147H56V273H484V147Z" />
<glyph unicode="&gt;" glyph-name="greater" horiz-adv-x="540" d="M484 271L56 67V215L335 325L56 435V583L484 379V271Z" />
<glyph unicode="?" glyph-name="question" horiz-adv-x="513" d="M478 543Q478 475 431 430T315 359L306 263H171L157 438Q305 468 305 535Q305 603 203 603Q136 603 74 573L23 697Q115 736 227 736Q349 736 413 688T478 543ZM340 133T340 91T311 20T239 -10T168
19T138 91T167 162T239 191T310 162Z" />
<glyph unicode="@" glyph-name="at" horiz-adv-x="1026" d="M982 333Q982 160 875 74T598 -12Q452 -12 372 60T291 263Q291 387 357 456T539 525Q650 525 719 466V123Q840 175 840 333Q840 461 763 539T541 617Q377 617 282 518T187 253Q187 90 294 -7T592 -105Q676
-105 755 -83T886 -26L956 -129Q815 -227 592 -227Q344 -227 194 -96T44 253Q44 466 179 601T541 736Q744 736 863 622T982 333ZM581 107V402Q561 413 534 413Q433 413 433 263Q433 109 581 107Z" />
<glyph unicode="A" glyph-name="A" horiz-adv-x="668" d="M669 0H491L449 147H219L177 0H-1L233 724H435L669 0ZM417 270L353 493Q346 519 340 552L335 584H333L328 552Q322 519 315 493L251 270H417Z" />
<glyph unicode="B" glyph-name="B" horiz-adv-x="620" d="M584 199Q584 98 509 43T289 -12Q152 -12 60 27V697Q158 736 289 736Q429 736 498 681T568 534Q568 478 537 435T460 378V376Q509 359 546 312T584 199ZM407 516Q407 610 288 610Q248 610 221 601V425H301Q355
425 379 446Q407 469 407 516ZM416 161T416 211T383 285Q352 306 302 306H221V123Q250 114 289 114Q355 114 385 137Z" />
<glyph unicode="C" glyph-name="C" horiz-adv-x="515" d="M488 27Q429 -12 330 -12Q202 -12 121 84T40 362T121 639T330 736Q429 736 488 697L436 562Q401 588 352 588Q289 588 252 530T215 364T252 198T352 139Q399 139 436 166L488 27Z" />
<glyph unicode="D" glyph-name="D" horiz-adv-x="629" d="M589 543T589 362T507 85T266 -12Q142 -12 60 27V697Q144 736 266 736Q425 736 507 640ZM419 130T419 362T276 594Q248 594 230 587V136Q245 130 276 130Q419 130 419 362Z" />
<glyph unicode="E" glyph-name="E" horiz-adv-x="493" d="M450 0H60V724H450V582H227V434H426V295H227V142H450V0Z" />
<glyph unicode="F" glyph-name="F" horiz-adv-x="483" d="M448 582H227V434H425V295H227V0H60V724H448V582Z" />
<glyph unicode="G" glyph-name="G" horiz-adv-x="634" d="M577 27Q504 -12 374 -12Q217 -12 129 90T40 362T133 633T389 736Q508 736 574 697L522 564Q473 592 396 592Q313 592 262 534T210 363Q210 252 254 191T362 130Q396 130 418 138V309H331V436H577V27Z" />
<glyph unicode="H" glyph-name="H" horiz-adv-x="637" d="M577 0H407V295H230V0H60V724H230V434H407V724H577V0Z" />
<glyph unicode="I" glyph-name="I" horiz-adv-x="290" d="M230 0H60V724H230V0Z" />
<glyph unicode="J" glyph-name="J" horiz-adv-x="290" d="M230 80Q230 -56 156 -131T-55 -220V-74Q-2 -63 29 -25T60 80V724H230V80Z" />
<glyph unicode="K" glyph-name="K" horiz-adv-x="628" d="M623 0H431L232 353H230V0H60V724H230V399H232L429 724H618L402 376L623 0Z" />
<glyph unicode="L" glyph-name="L" horiz-adv-x="459" d="M430 0H60V724H230V142H430V0Z" />
<glyph unicode="M" glyph-name="M" horiz-adv-x="872" d="M842 0H685L644 418L636 520H634L610 418L488 0H384L262 418L238 520H236L229 418L187 0H30L117 724H307L414 351L435 256H437L458 351L565 724H755L842 0Z" />
<glyph unicode="N" glyph-name="N" horiz-adv-x="663" d="M603 0H468L248 376Q232 402 218 432L204 463H202Q204 463 204 366V0H60V724H201L415 360Q430 335 444 304L458 273H460Q459 273 459 373V724H603V0Z" />
<glyph unicode="O" glyph-name="O" horiz-adv-x="644" d="M604 530T604 362T533 91T322 -12T112 91T40 362T111 633T322 736T532 633ZM434 255T434 362T406 528T322 587T239 528T210 362T238 196T322 137T405 196Z" />
<glyph unicode="P" glyph-name="P" horiz-adv-x="600" d="M570 499Q570 394 497 330T284 266Q253 266 227 270V0H60V697Q150 736 280 736Q419 736 494 673T570 499ZM403 499Q403 609 282 609Q253 609 227 601V397Q249 393 276 393Q403 393 403 499Z" />
<glyph unicode="Q" glyph-name="Q" horiz-adv-x="644" d="M604 -97L474 -201L364 -7Q342 -12 322 -12Q183 -12 112 91T40 362T111 633T322 736T532 633T604 362Q604 148 499 52L604 -97ZM434 255T434 362T406 528T322 587T239 528T210 362T238 196T322 137T405 196Z" />
<glyph unicode="R" glyph-name="R" horiz-adv-x="629" d="M613 0H434L355 215Q331 281 269 281H227V0H60V697Q154 736 288 736Q427 736 499 678T571 511Q571 383 444 335V333Q497 302 527 222L613 0ZM404 501Q404 609 292 609Q251 609 227 601V401H292Q404 401 404 501Z" />
<glyph unicode="S" glyph-name="S" horiz-adv-x="509" d="M474 218Q474 114 408 51T223 -12T31 27L86 175Q143 141 215 141Q255 141 277 159T299 208Q299 235 278 254T218 291Q189 305 170 315T123 346T80 388T52 442T40 513Q40 615 104 675T281 736Q386 736 455
697L403 561Q347 591 289 591Q252 591 231 573T210 524Q210 498 231 479T292 439Q326 421 341 413T387 383T433 341T461 289T474 218Z" />
<glyph unicode="T" glyph-name="T" horiz-adv-x="508" d="M477 582H339V0H169V582H31V724H477V582Z" />
<glyph unicode="U" glyph-name="U" horiz-adv-x="628" d="M568 218Q568 111 497 51T314 -10T131 50T60 218V724H230V216Q230 179 254 157T314 135T374 157T398 216V724H568V218Z" />
<glyph unicode="V" glyph-name="V" horiz-adv-x="621" d="M617 724L400 0H221L4 724H189L291 288L310 180H312L330 288L432 724H617Z" />
<glyph unicode="W" glyph-name="W" horiz-adv-x="916" d="M902 724L724 0H561L477 371L459 477H457L439 371L355 0H192L14 724H186L264 308L279 211H281L296 308L388 724H528L620 308L635 211H637L652 308L730 724H902Z" />
<glyph unicode="X" glyph-name="X" horiz-adv-x="610" d="M611 0H424L306 241H304L186 0H-1L204 376L15 724H200L304 509H306L410 724H595L406 376L611 0Z" />
<glyph unicode="Y" glyph-name="Y" d="M582 724L375 281V0H205V281L-1 724H181L289 452H291L399 724H582Z" />
<glyph unicode="Z" glyph-name="Z" horiz-adv-x="521" d="M482 0H16L250 582H44V724H481L248 142H482V0Z" />
<glyph unicode="[" glyph-name="bracketleft" horiz-adv-x="390" d="M350 -195H67V785H350V658H227V-68H350V-195Z" />
<glyph unicode="\" glyph-name="backslash" horiz-adv-x="497" d="M511 -162L356 -206L26 763L180 807L511 -162Z" />
<glyph unicode="]" glyph-name="bracketright" horiz-adv-x="390" d="M323 -195H40V-68H163V658H40V785H323V-195Z" />
<glyph unicode="^" glyph-name="asciicircum" horiz-adv-x="618" d="M557 440L457 359L309 543L161 359L61 440L237 657Q265 691 309 691T381 657L557 440Z" />
<glyph unicode="_" glyph-name="underscore" horiz-adv-x="596" d="M600 -226H-4V-117H600V-226Z" />
<glyph unicode="`" glyph-name="grave" horiz-adv-x="362" d="M262 601H151L39 732Q43 747 61 756T104 766Q159 766 193 732L262 601Z" />
<glyph unicode="a" glyph-name="a" horiz-adv-x="548" d="M494 27Q418 -12 284 -12Q30 -12 30 166Q30 208 47 239T91 290T160 323T243 342T339 351V372Q339 435 253 435Q180 435 100 402L60 512Q159 551 273 551Q386 551 440 504T494 352V27ZM339 110V248Q260
244 222 229T183 170Q183 137 208 120T279 102Q317 102 339 110Z" />
<glyph unicode="b" glyph-name="b" horiz-adv-x="576" d="M540 287Q540 137 468 63T256 -12Q138 -12 54 27V785H219V530Q256 546 304 546Q411 546 475 478T540 287ZM375 273Q375 344 348 383T271 422Q243 422 219 411V123Q237 116 267 116Q318 116 346 157T375 273Z" />
<glyph unicode="c" glyph-name="c" horiz-adv-x="455" d="M431 25Q376 -12 283 -12Q178 -12 107 61T36 270T107 478T283 551Q373 551 431 514L380 397Q354 417 309 417Q262 417 235 379T207 272Q207 205 235 166T309 126T380 146L431 25Z" />
<glyph unicode="d" glyph-name="d" horiz-adv-x="576" d="M522 27Q448 -12 312 -12Q178 -12 107 60T36 268Q36 396 101 470T289 544Q327 544 357 534V785H522V27ZM357 123V413Q339 421 307 421Q256 421 229 380T201 270Q201 195 229 156T309 116Q341 116 357 123Z" />
<glyph unicode="e" glyph-name="e" horiz-adv-x="571" d="M535 298Q535 265 533 248L197 204Q207 161 241 139T328 116Q414 116 480 149L526 27Q443 -12 315 -12Q180 -12 108 66T36 270Q36 396 105 473T294 551Q409 551 472 482T535 298ZM376 330Q376 380 353
407T290 435Q244 435 216 403T186 306L376 330Z" />
<glyph unicode="f" glyph-name="f" horiz-adv-x="381" d="M359 658Q351 659 335 659Q253 659 253 593V539H349V416H253V0H91V416H29V539H91V593Q91 691 148 740T304 789Q331 789 359 785V658Z" />
<glyph unicode="g" glyph-name="g" horiz-adv-x="576" d="M522 12Q522 -103 456 -164T276 -225Q147 -225 58 -182L103 -54Q165 -86 258 -86Q359 -86 359 12V38Q320 21 266 21Q162 21 99 90T36 278Q36 411 111 481T322 551Q440 551 522 512V12ZM359 155V419Q338
426 306 426Q257 426 229 390T201 284T228 179T304 143Q335 143 359 155Z" />
<glyph unicode="h" glyph-name="h" horiz-adv-x="576" d="M522 0H357V347Q357 420 279 420Q247 420 219 406V0H54V785H219V526Q270 548 323 548Q420 548 471 501T522 364V0Z" />
<glyph unicode="i" glyph-name="i" horiz-adv-x="275" d="M229 733T229 698T202 638T137 613T73 638T46 698T73 758T137 784Q175 784 202 759ZM220 0H55V539H220V0Z" />
<glyph unicode="j" glyph-name="j" horiz-adv-x="275" d="M229 733T229 698T202 638T137 613T73 638T46 698T73 758T137 784Q175 784 202 759ZM220 74Q220 -3 200 -59T141 -149T57 -200T-45 -224V-89Q55 -60 55 74V539H220V74Z" />
<glyph unicode="k" glyph-name="k" horiz-adv-x="572" d="M569 0H385L220 269H218V0H55V785H218V308H220L369 539H555L387 288L569 0Z" />
<glyph unicode="l" glyph-name="l" horiz-adv-x="275" d="M220 0H55V785H220V0Z" />
<glyph unicode="m" glyph-name="m" horiz-adv-x="873" d="M819 0H654V352Q654 385 635 403T580 422Q544 422 519 404V0H354V355Q354 386 334 404T277 422Q246 422 219 411V0H54V512Q153 551 266 551Q377 551 440 501Q511 551 624 551Q716 551 767 503T819 371V0Z" />
<glyph unicode="n" glyph-name="n" horiz-adv-x="576" d="M522 0H357V350Q357 384 337 403T281 422T219 411V0H54V512Q156 551 279 551Q522 551 522 369V0Z" />
<glyph unicode="o" glyph-name="o" horiz-adv-x="578" d="M542 394T542 270T475 67T289 -12T104 67T36 270T103 472T289 551T474 473ZM377 272Q377 423 289 423T201 272Q201 120 289 120T377 272Z" />
<glyph unicode="p" glyph-name="p" horiz-adv-x="576" d="M540 271Q540 143 475 69T286 -5Q246 -5 219 4V-215H54V512Q130 551 264 551T469 479T540 271ZM375 271Q375 346 347 385T267 425Q239 425 219 417V127Q237 119 268 119Q319 119 347 160T375 271Z" />
<glyph unicode="q" glyph-name="q" horiz-adv-x="576" d="M522 -215H357V9Q320 -7 271 -7Q164 -7 100 61T36 252Q36 402 109 476T322 551Q438 551 522 512V-215ZM357 129V417Q337 425 309 425Q258 425 230 384T201 268Q201 197 228 158T305 119Q335 119 357 129Z" />
<glyph unicode="r" glyph-name="r" horiz-adv-x="385" d="M366 545L336 411Q309 421 275 421Q242 421 219 412V0H54V512Q156 551 288 551Q328 551 366 545Z" />
<glyph unicode="s" glyph-name="s" horiz-adv-x="468" d="M436 161Q436 80 378 34T207 -12Q102 -12 24 27L76 151Q96 139 135 128T202 117Q230 117 247 129T264 162Q264 183 247 195T195 220Q161 232 142 241T95 269T52 318T38 386Q38 462 93 506T247 551Q349
551 422 512L373 401Q322 431 269 431Q240 431 224 419T207 387Q207 364 224 352T277 327Q306 317 320 312T360 292T400 262T424 220T436 161Z" />
<glyph unicode="t" glyph-name="t" horiz-adv-x="379" d="M345 9Q309 -9 249 -9Q166 -9 128 36T90 173V416H26V539H90V654L251 699V539H345V416H251V185Q251 136 304 136Q327 136 345 145V9Z" />
<glyph unicode="u" glyph-name="u" horiz-adv-x="571" d="M517 27Q436 -12 292 -12Q171 -12 113 36T54 193V539H219V189Q219 122 292 122Q333 122 352 130V539H517V27Z" />
<glyph unicode="v" glyph-name="v" horiz-adv-x="593" d="M585 539L392 0H201L8 539H194L277 228L295 138H297L316 228L399 539H585Z" />
<glyph unicode="w" glyph-name="w" horiz-adv-x="851" d="M834 539L681 0H510L442 271L427 355H425L409 271L341 0H170L17 539H183L245 236Q251 210 254 178L257 145H259L277 236L351 539H500L575 236L592 145H594L607 236L669 539H834Z" />
<glyph unicode="x" glyph-name="x" horiz-adv-x="568" d="M569 0H380L285 169H283L188 0H-1L182 279L14 539H200L283 383H285L369 539H554L387 279L569 0Z" />
<glyph unicode="y" glyph-name="y" horiz-adv-x="593" d="M585 539L303 -215H130L211 0L8 539H194L278 229L295 138H297L315 229L399 539H585Z" />
<glyph unicode="z" glyph-name="z" horiz-adv-x="480" d="M445 0H22L215 411H41V539H443L250 128H445V0Z" />
<glyph unicode="{" glyph-name="braceleft" horiz-adv-x="396" d="M350 -195H302Q198 -195 147 -144T95 2Q95 32 102 76T110 149Q110 186 88 207T30 230V360Q66 361 88 382T110 441Q110 470 103 514T95 588Q95 682 146 733T302 785H350V658H329Q255 658 255 588Q255
558 262 514T270 441Q270 326 165 296V294Q270 264 270 149Q270 120 263 76T255 2Q255 -68 329 -68H350V-195Z" />
<glyph unicode="|" glyph-name="bar" horiz-adv-x="280" d="M222 -215H57V785H222V-215Z" />
<glyph unicode="}" glyph-name="braceright" horiz-adv-x="396" d="M366 230Q330 229 308 208T286 149Q286 120 293 76T301 2Q301 -92 250 -143T94 -195H46V-68H67Q141 -68 141 2Q141 32 134 76T126 149Q126 264 231 294V296Q126 326 126 441Q126 470 133 514T141
588Q141 658 67 658H46V785H94Q198 785 249 734T301 588Q301 558 294 514T286 441Q286 404 308 383T366 360V230Z" />
<glyph unicode="~" glyph-name="asciitilde" horiz-adv-x="618" d="M557 403Q548 344 508 306T409 268Q368 268 314 296T231 325Q200 325 176 308T141 261L61 321Q70 380 110 418T209 456Q250 456 304 428T387 399Q418 399 442 416T476 463L557 403Z" />
</font>
</defs>
</svg>
